<mxfile host="app.diagrams.net" agent="Mozilla/5.0 (Windows NT 10.0; Win64; x64) AppleWebKit/537.36 (KHTML, like Gecko) Chrome/138.0.0.0 YaBrowser/25.8.0.0 Safari/537.36" version="28.2.7">
  <diagram name="Страница — 1" id="nCgpzv-hT7-yPpmL_vP3">
    <mxGraphModel dx="1378" dy="788" grid="1" gridSize="10" guides="1" tooltips="1" connect="1" arrows="1" fold="1" page="1" pageScale="1" pageWidth="827" pageHeight="1169" math="0" shadow="0">
      <root>
        <mxCell id="0" />
        <mxCell id="1" parent="0" />
        <mxCell id="991j7NbUM2IHZhA0t-br-3" style="edgeStyle=orthogonalEdgeStyle;rounded=0;orthogonalLoop=1;jettySize=auto;html=1;entryX=0.5;entryY=0;entryDx=0;entryDy=0;" edge="1" parent="1" source="991j7NbUM2IHZhA0t-br-1" target="991j7NbUM2IHZhA0t-br-2">
          <mxGeometry relative="1" as="geometry" />
        </mxCell>
        <mxCell id="991j7NbUM2IHZhA0t-br-1" value="" style="shape=waypoint;sketch=0;fillStyle=solid;size=6;pointerEvents=1;points=[];fillColor=none;resizable=0;rotatable=0;perimeter=centerPerimeter;snapToPoint=1;" vertex="1" parent="1">
          <mxGeometry x="404" y="100" width="20" height="20" as="geometry" />
        </mxCell>
        <mxCell id="991j7NbUM2IHZhA0t-br-2" value="&lt;pre style=&quot;font-variant-numeric: normal; font-variant-east-asian: normal; font-variant-alternates: normal; font-size-adjust: none; font-kerning: auto; font-optical-sizing: auto; font-feature-settings: normal; font-variation-settings: normal; font-variant-position: normal; font-variant-emoji: normal; font-stretch: normal; font-size: 13px; line-height: 22px; font-family: Menlo, Monaco, Consolas, &amp;quot;Cascadia Mono&amp;quot;, &amp;quot;Ubuntu Mono&amp;quot;, &amp;quot;DejaVu Sans Mono&amp;quot;, &amp;quot;Liberation Mono&amp;quot;, &amp;quot;JetBrains Mono&amp;quot;, &amp;quot;Fira Code&amp;quot;, Cousine, &amp;quot;Roboto Mono&amp;quot;, &amp;quot;Courier New&amp;quot;, Courier, sans-serif, system-ui; overflow: auto; text-wrap-mode: wrap; word-break: break-all; padding: 16px; color: rgb(15, 17, 21); text-align: start; margin: 0px !important;&quot;&gt;Подана&lt;/pre&gt;" style="rounded=1;whiteSpace=wrap;html=1;" vertex="1" parent="1">
          <mxGeometry x="354" y="130" width="120" height="60" as="geometry" />
        </mxCell>
        <mxCell id="991j7NbUM2IHZhA0t-br-4" value="" style="endArrow=classic;html=1;rounded=0;exitX=0.5;exitY=1;exitDx=0;exitDy=0;entryX=0.5;entryY=0;entryDx=0;entryDy=0;" edge="1" parent="1" source="991j7NbUM2IHZhA0t-br-2" target="991j7NbUM2IHZhA0t-br-6">
          <mxGeometry width="50" height="50" relative="1" as="geometry">
            <mxPoint x="490" y="250" as="sourcePoint" />
            <mxPoint x="410" y="230" as="targetPoint" />
          </mxGeometry>
        </mxCell>
        <mxCell id="991j7NbUM2IHZhA0t-br-5" value="Проверить права" style="edgeLabel;html=1;align=center;verticalAlign=middle;resizable=0;points=[];" vertex="1" connectable="0" parent="991j7NbUM2IHZhA0t-br-4">
          <mxGeometry x="0.1762" relative="1" as="geometry">
            <mxPoint as="offset" />
          </mxGeometry>
        </mxCell>
        <mxCell id="991j7NbUM2IHZhA0t-br-6" value="Проверка прав" style="swimlane;whiteSpace=wrap;html=1;" vertex="1" parent="1">
          <mxGeometry x="98.5" y="240" width="631" height="450" as="geometry" />
        </mxCell>
        <mxCell id="991j7NbUM2IHZhA0t-br-9" value="" style="edgeStyle=orthogonalEdgeStyle;rounded=0;orthogonalLoop=1;jettySize=auto;html=1;" edge="1" parent="991j7NbUM2IHZhA0t-br-6" source="991j7NbUM2IHZhA0t-br-7" target="991j7NbUM2IHZhA0t-br-8">
          <mxGeometry relative="1" as="geometry" />
        </mxCell>
        <mxCell id="991j7NbUM2IHZhA0t-br-7" value="" style="shape=waypoint;sketch=0;fillStyle=solid;size=6;pointerEvents=1;points=[];fillColor=none;resizable=0;rotatable=0;perimeter=centerPerimeter;snapToPoint=1;" vertex="1" parent="991j7NbUM2IHZhA0t-br-6">
          <mxGeometry x="149" y="40" width="20" height="20" as="geometry" />
        </mxCell>
        <mxCell id="991j7NbUM2IHZhA0t-br-11" style="edgeStyle=orthogonalEdgeStyle;rounded=0;orthogonalLoop=1;jettySize=auto;html=1;entryX=0.5;entryY=0;entryDx=0;entryDy=0;" edge="1" parent="991j7NbUM2IHZhA0t-br-6" source="991j7NbUM2IHZhA0t-br-8" target="991j7NbUM2IHZhA0t-br-10">
          <mxGeometry relative="1" as="geometry" />
        </mxCell>
        <mxCell id="991j7NbUM2IHZhA0t-br-12" value="Соответствие учебному плану" style="edgeLabel;html=1;align=center;verticalAlign=middle;resizable=0;points=[];" vertex="1" connectable="0" parent="991j7NbUM2IHZhA0t-br-11">
          <mxGeometry x="0.0091" relative="1" as="geometry">
            <mxPoint as="offset" />
          </mxGeometry>
        </mxCell>
        <mxCell id="991j7NbUM2IHZhA0t-br-14" style="edgeStyle=orthogonalEdgeStyle;rounded=0;orthogonalLoop=1;jettySize=auto;html=1;exitX=0;exitY=0.5;exitDx=0;exitDy=0;entryX=0.5;entryY=0;entryDx=0;entryDy=0;" edge="1" parent="991j7NbUM2IHZhA0t-br-6" source="991j7NbUM2IHZhA0t-br-8" target="991j7NbUM2IHZhA0t-br-13">
          <mxGeometry relative="1" as="geometry" />
        </mxCell>
        <mxCell id="991j7NbUM2IHZhA0t-br-16" value="Не соответствует" style="edgeLabel;html=1;align=center;verticalAlign=middle;resizable=0;points=[];" vertex="1" connectable="0" parent="991j7NbUM2IHZhA0t-br-14">
          <mxGeometry x="-0.2333" relative="1" as="geometry">
            <mxPoint as="offset" />
          </mxGeometry>
        </mxCell>
        <mxCell id="991j7NbUM2IHZhA0t-br-8" value="Проверка учебного плана" style="rounded=1;whiteSpace=wrap;html=1;" vertex="1" parent="991j7NbUM2IHZhA0t-br-6">
          <mxGeometry x="99" y="70" width="120" height="60" as="geometry" />
        </mxCell>
        <mxCell id="991j7NbUM2IHZhA0t-br-18" value="" style="edgeStyle=orthogonalEdgeStyle;rounded=0;orthogonalLoop=1;jettySize=auto;html=1;" edge="1" parent="991j7NbUM2IHZhA0t-br-6" source="991j7NbUM2IHZhA0t-br-10" target="991j7NbUM2IHZhA0t-br-17">
          <mxGeometry relative="1" as="geometry" />
        </mxCell>
        <mxCell id="991j7NbUM2IHZhA0t-br-10" value="Соответствует" style="rounded=1;whiteSpace=wrap;html=1;" vertex="1" parent="991j7NbUM2IHZhA0t-br-6">
          <mxGeometry x="329" y="150" width="120" height="60" as="geometry" />
        </mxCell>
        <mxCell id="991j7NbUM2IHZhA0t-br-29" value="" style="edgeStyle=orthogonalEdgeStyle;rounded=0;orthogonalLoop=1;jettySize=auto;html=1;" edge="1" parent="991j7NbUM2IHZhA0t-br-6" source="991j7NbUM2IHZhA0t-br-13" target="991j7NbUM2IHZhA0t-br-28">
          <mxGeometry relative="1" as="geometry" />
        </mxCell>
        <mxCell id="991j7NbUM2IHZhA0t-br-36" value="Не прошла проверку" style="edgeLabel;html=1;align=center;verticalAlign=middle;resizable=0;points=[];" vertex="1" connectable="0" parent="991j7NbUM2IHZhA0t-br-29">
          <mxGeometry x="0.2615" y="1" relative="1" as="geometry">
            <mxPoint as="offset" />
          </mxGeometry>
        </mxCell>
        <mxCell id="991j7NbUM2IHZhA0t-br-13" value="Не соответствует&amp;nbsp;" style="rounded=1;whiteSpace=wrap;html=1;" vertex="1" parent="991j7NbUM2IHZhA0t-br-6">
          <mxGeometry x="19" y="335" width="120" height="60" as="geometry" />
        </mxCell>
        <mxCell id="991j7NbUM2IHZhA0t-br-22" style="edgeStyle=orthogonalEdgeStyle;rounded=0;orthogonalLoop=1;jettySize=auto;html=1;entryX=0.5;entryY=0;entryDx=0;entryDy=0;" edge="1" parent="991j7NbUM2IHZhA0t-br-6" source="991j7NbUM2IHZhA0t-br-17" target="991j7NbUM2IHZhA0t-br-19">
          <mxGeometry relative="1" as="geometry" />
        </mxCell>
        <mxCell id="991j7NbUM2IHZhA0t-br-25" value="Нет мест и нет конфликта&amp;nbsp;" style="edgeLabel;html=1;align=center;verticalAlign=middle;resizable=0;points=[];" vertex="1" connectable="0" parent="991j7NbUM2IHZhA0t-br-22">
          <mxGeometry x="0.2242" y="4" relative="1" as="geometry">
            <mxPoint as="offset" />
          </mxGeometry>
        </mxCell>
        <mxCell id="991j7NbUM2IHZhA0t-br-23" value="" style="edgeStyle=orthogonalEdgeStyle;rounded=0;orthogonalLoop=1;jettySize=auto;html=1;" edge="1" parent="991j7NbUM2IHZhA0t-br-6" source="991j7NbUM2IHZhA0t-br-17" target="991j7NbUM2IHZhA0t-br-20">
          <mxGeometry relative="1" as="geometry" />
        </mxCell>
        <mxCell id="991j7NbUM2IHZhA0t-br-26" value="Есть конфликт расписания" style="edgeLabel;html=1;align=center;verticalAlign=middle;resizable=0;points=[];" vertex="1" connectable="0" parent="991j7NbUM2IHZhA0t-br-23">
          <mxGeometry x="-0.3778" y="-3" relative="1" as="geometry">
            <mxPoint as="offset" />
          </mxGeometry>
        </mxCell>
        <mxCell id="991j7NbUM2IHZhA0t-br-24" style="edgeStyle=orthogonalEdgeStyle;rounded=0;orthogonalLoop=1;jettySize=auto;html=1;entryX=0.5;entryY=0;entryDx=0;entryDy=0;" edge="1" parent="991j7NbUM2IHZhA0t-br-6" source="991j7NbUM2IHZhA0t-br-17" target="991j7NbUM2IHZhA0t-br-21">
          <mxGeometry relative="1" as="geometry" />
        </mxCell>
        <mxCell id="991j7NbUM2IHZhA0t-br-27" value="Есть место и нет конфликта" style="edgeLabel;html=1;align=center;verticalAlign=middle;resizable=0;points=[];" vertex="1" connectable="0" parent="991j7NbUM2IHZhA0t-br-24">
          <mxGeometry x="0.2727" y="1" relative="1" as="geometry">
            <mxPoint as="offset" />
          </mxGeometry>
        </mxCell>
        <mxCell id="991j7NbUM2IHZhA0t-br-17" value="Проверка мест и описания" style="rounded=1;whiteSpace=wrap;html=1;" vertex="1" parent="991j7NbUM2IHZhA0t-br-6">
          <mxGeometry x="329" y="230" width="120" height="60" as="geometry" />
        </mxCell>
        <mxCell id="991j7NbUM2IHZhA0t-br-31" value="" style="edgeStyle=orthogonalEdgeStyle;rounded=0;orthogonalLoop=1;jettySize=auto;html=1;" edge="1" parent="991j7NbUM2IHZhA0t-br-6" source="991j7NbUM2IHZhA0t-br-19" target="991j7NbUM2IHZhA0t-br-30">
          <mxGeometry relative="1" as="geometry" />
        </mxCell>
        <mxCell id="991j7NbUM2IHZhA0t-br-37" value="Не прошла проверку" style="edgeLabel;html=1;align=center;verticalAlign=middle;resizable=0;points=[];" vertex="1" connectable="0" parent="991j7NbUM2IHZhA0t-br-31">
          <mxGeometry x="0.4462" y="-1" relative="1" as="geometry">
            <mxPoint as="offset" />
          </mxGeometry>
        </mxCell>
        <mxCell id="991j7NbUM2IHZhA0t-br-19" value="Лист ожидания" style="rounded=1;whiteSpace=wrap;html=1;" vertex="1" parent="991j7NbUM2IHZhA0t-br-6">
          <mxGeometry x="179" y="335" width="120" height="60" as="geometry" />
        </mxCell>
        <mxCell id="991j7NbUM2IHZhA0t-br-33" value="" style="edgeStyle=orthogonalEdgeStyle;rounded=0;orthogonalLoop=1;jettySize=auto;html=1;" edge="1" parent="991j7NbUM2IHZhA0t-br-6" source="991j7NbUM2IHZhA0t-br-20" target="991j7NbUM2IHZhA0t-br-32">
          <mxGeometry relative="1" as="geometry" />
        </mxCell>
        <mxCell id="991j7NbUM2IHZhA0t-br-38" value="Не прошла проверку" style="edgeLabel;html=1;align=center;verticalAlign=middle;resizable=0;points=[];" vertex="1" connectable="0" parent="991j7NbUM2IHZhA0t-br-33">
          <mxGeometry x="0.4154" y="2" relative="1" as="geometry">
            <mxPoint as="offset" />
          </mxGeometry>
        </mxCell>
        <mxCell id="991j7NbUM2IHZhA0t-br-20" value="Конфликт" style="rounded=1;whiteSpace=wrap;html=1;" vertex="1" parent="991j7NbUM2IHZhA0t-br-6">
          <mxGeometry x="329" y="335" width="120" height="60" as="geometry" />
        </mxCell>
        <mxCell id="991j7NbUM2IHZhA0t-br-21" value="Доступна" style="rounded=1;whiteSpace=wrap;html=1;" vertex="1" parent="991j7NbUM2IHZhA0t-br-6">
          <mxGeometry x="479" y="335" width="120" height="60" as="geometry" />
        </mxCell>
        <mxCell id="991j7NbUM2IHZhA0t-br-28" value="" style="shape=waypoint;sketch=0;fillStyle=solid;size=6;pointerEvents=1;points=[];fillColor=none;resizable=0;rotatable=0;perimeter=centerPerimeter;snapToPoint=1;" vertex="1" parent="991j7NbUM2IHZhA0t-br-6">
          <mxGeometry x="69" y="420" width="20" height="20" as="geometry" />
        </mxCell>
        <mxCell id="991j7NbUM2IHZhA0t-br-30" value="" style="shape=waypoint;sketch=0;fillStyle=solid;size=6;pointerEvents=1;points=[];fillColor=none;resizable=0;rotatable=0;perimeter=centerPerimeter;snapToPoint=1;" vertex="1" parent="991j7NbUM2IHZhA0t-br-6">
          <mxGeometry x="229" y="420" width="20" height="20" as="geometry" />
        </mxCell>
        <mxCell id="991j7NbUM2IHZhA0t-br-32" value="" style="shape=waypoint;sketch=0;fillStyle=solid;size=6;pointerEvents=1;points=[];fillColor=none;resizable=0;rotatable=0;perimeter=centerPerimeter;snapToPoint=1;" vertex="1" parent="991j7NbUM2IHZhA0t-br-6">
          <mxGeometry x="379" y="420" width="20" height="20" as="geometry" />
        </mxCell>
        <mxCell id="991j7NbUM2IHZhA0t-br-40" value="Зачислен" style="rounded=1;whiteSpace=wrap;html=1;" vertex="1" parent="1">
          <mxGeometry x="577.5" y="710" width="120" height="60" as="geometry" />
        </mxCell>
        <mxCell id="991j7NbUM2IHZhA0t-br-35" value="" style="edgeStyle=orthogonalEdgeStyle;rounded=0;orthogonalLoop=1;jettySize=auto;html=1;entryX=0.5;entryY=0;entryDx=0;entryDy=0;" edge="1" parent="1" source="991j7NbUM2IHZhA0t-br-21" target="991j7NbUM2IHZhA0t-br-40">
          <mxGeometry relative="1" as="geometry">
            <mxPoint x="637.5" y="670" as="targetPoint" />
          </mxGeometry>
        </mxCell>
        <mxCell id="991j7NbUM2IHZhA0t-br-39" value="Прошла проверку" style="edgeLabel;html=1;align=center;verticalAlign=middle;resizable=0;points=[];" vertex="1" connectable="0" parent="991j7NbUM2IHZhA0t-br-35">
          <mxGeometry x="0.4462" y="1" relative="1" as="geometry">
            <mxPoint x="-1" y="-38" as="offset" />
          </mxGeometry>
        </mxCell>
        <mxCell id="991j7NbUM2IHZhA0t-br-41" value="Не зачислен" style="rounded=1;whiteSpace=wrap;html=1;" vertex="1" parent="1">
          <mxGeometry x="260" y="710" width="120" height="60" as="geometry" />
        </mxCell>
        <mxCell id="991j7NbUM2IHZhA0t-br-42" value="" style="endArrow=classic;html=1;rounded=0;" edge="1" parent="1" target="991j7NbUM2IHZhA0t-br-41">
          <mxGeometry width="50" height="50" relative="1" as="geometry">
            <mxPoint x="320" y="690" as="sourcePoint" />
            <mxPoint x="220" y="790" as="targetPoint" />
          </mxGeometry>
        </mxCell>
      </root>
    </mxGraphModel>
  </diagram>
</mxfile>
